{
  "accessors": [
    {
      "bufferView": 2,
      "componentType": 5126,
      "count": 2765,
      "max": [
        1.5651400089263916,
        7.551720142364502,
        3.8223700523376465
      ],
      "min": [
        -1.5651400089263916,
        -7.369229793548584,
        -0.00023999999393709004
      ],
      "type": "VEC3"
    },
    {
      "bufferView": 2,
      "byteOffset": 33180,
      "componentType": 5126,
      "count": 2765,
      "max": [
        1.0,
        1.0,
        1.0
      ],
      "min": [
        -1.0,
        -1.0,
        -1.0
      ],
      "type": "VEC3"
    },
    {
      "bufferView": 1,
      "componentType": 5126,
      "count": 2765,
      "max": [
        0.9908199906349182,
        0.9851300120353699
      ],
      "min": [
        0.007410000078380108,
        0.005930006504058838
      ],
      "type": "VEC2"
    },
    {
      "bufferView": 1,
      "byteOffset": 22120,
      "componentType": 5126,
      "count": 2765,
      "max": [
        0.9908199906349182,
        0.9851300120353699
      ],
      "min": [
        0.007410000078380108,
        0.005930006504058838
      ],
      "type": "VEC2"
    },
    {
      "bufferView": 1,
      "byteOffset": 44240,
      "componentType": 5126,
      "count": 2765,
      "max": [
        0.9908199906349182,
        0.9851300120353699
      ],
      "min": [
        0.007410000078380108,
        0.005930006504058838
      ],
      "type": "VEC2"
    },
    {
      "bufferView": 0,
      "componentType": 5125,
      "count": 4290,
      "type": "SCALAR"
    },
    {
      "bufferView": 2,
      "byteOffset": 66360,
      "componentType": 5126,
      "count": 2765,
      "max": [
        1.5651400089263916,
        7.551720142364502,
        3.8223700523376465
      ],
      "min": [
        -1.5651400089263916,
        -7.369229793548584,
        -0.00023999999393709004
      ],
      "type": "VEC3"
    },
    {
      "bufferView": 2,
      "byteOffset": 99540,
      "componentType": 5126,
      "count": 2765,
      "max": [
        1.0,
        1.0,
        1.0
      ],
      "min": [
        -1.0,
        -1.0,
        -1.0
      ],
      "type": "VEC3"
    },
    {
      "bufferView": 1,
      "byteOffset": 66360,
      "componentType": 5126,
      "count": 2765,
      "max": [
        0.9908199906349182,
        0.9851300120353699
      ],
      "min": [
        0.007410000078380108,
        0.005930006504058838
      ],
      "type": "VEC2"
    },
    {
      "bufferView": 1,
      "byteOffset": 88480,
      "componentType": 5126,
      "count": 2765,
      "max": [
        0.9908199906349182,
        0.9851300120353699
      ],
      "min": [
        0.007410000078380108,
        0.005930006504058838
      ],
      "type": "VEC2"
    },
    {
      "bufferView": 1,
      "byteOffset": 110600,
      "componentType": 5126,
      "count": 2765,
      "max": [
        0.9908199906349182,
        0.9851300120353699
      ],
      "min": [
        0.007410000078380108,
        0.005930006504058838
      ],
      "type": "VEC2"
    },
    {
      "bufferView": 0,
      "byteOffset": 17160,
      "componentType": 5125,
      "count": 4290,
      "type": "SCALAR"
    },
    {
      "bufferView": 2,
      "byteOffset": 132720,
      "componentType": 5126,
      "count": 475,
      "max": [
        1.1749999523162842,
        1.2118899822235107,
        3.635849952697754
      ],
      "min": [
        -1.1749999523162842,
        -1.2118300199508667,
        -0.00023999999393709004
      ],
      "type": "VEC3"
    },
    {
      "bufferView": 2,
      "byteOffset": 138420,
      "componentType": 5126,
      "count": 475,
      "max": [
        1.0,
        1.0,
        1.0
      ],
      "min": [
        -1.0,
        -1.0,
        -1.0
      ],
      "type": "VEC3"
    },
    {
      "bufferView": 1,
      "byteOffset": 132720,
      "componentType": 5126,
      "count": 475,
      "max": [
        0.9768999814987183,
        0.9687399864196777
      ],
      "min": [
        0.06990999728441238,
        0.1132199764251709
      ],
      "type": "VEC2"
    },
    {
      "bufferView": 0,
      "byteOffset": 34320,
      "componentType": 5125,
      "count": 822,
      "type": "SCALAR"
    }
  ],
  "asset": {
    "extras": {
      "author": "UiGoku (https://sketchfab.com/GokuSSJB)",
      "license": "CC-BY-4.0 (http://creativecommons.org/licenses/by/4.0/)",
      "source": "https://sketchfab.com/3d-models/gvb-metro-51-ce7cb95a5ad7443fba7595fc3bfbc977",
      "title": "Gvb metro 51"
    },
    "generator": "Sketchfab-16.51.0",
    "version": "2.0"
  },
  "bufferViews": [
    {
      "buffer": 0,
      "byteLength": 37608,
      "name": "floatBufferViews",
      "target": 34963
    },
    {
      "buffer": 0,
      "byteLength": 136520,
      "byteOffset": 37608,
      "byteStride": 8,
      "name": "floatBufferViews",
      "target": 34962
    },
    {
      "buffer": 0,
      "byteLength": 144120,
      "byteOffset": 174128,
      "byteStride": 12,
      "name": "floatBufferViews",
      "target": 34962
    }
  ],
  "buffers": [
    {
      "byteLength": 318248,
      "uri": "scene.bin"
    }
  ],
  "images": [
    {
      "uri": "textures/Material.001_baseColor.png"
    },
    {
      "uri": "textures/Material.002_baseColor.png"
    }
  ],
  "materials": [
    {
      "doubleSided": true,
      "name": "Material.001",
      "pbrMetallicRoughness": {
        "baseColorTexture": {
          "index": 0
        },
        "metallicFactor": 0.0
      }
    },
    {
      "doubleSided": true,
      "name": "Material.002",
      "pbrMetallicRoughness": {
        "baseColorTexture": {
          "index": 1
        },
        "metallicFactor": 0.0
      }
    }
  ],
  "meshes": [
    {
      "name": "Object_0",
      "primitives": [
        {
          "attributes": {
            "NORMAL": 1,
            "POSITION": 0,
            "TEXCOORD_0": 2,
            "TEXCOORD_1": 3,
            "TEXCOORD_2": 4
          },
          "indices": 5,
          "material": 0,
          "mode": 4
        }
      ]
    },
    {
      "name": "Object_1",
      "primitives": [
        {
          "attributes": {
            "NORMAL": 7,
            "POSITION": 6,
            "TEXCOORD_0": 8,
            "TEXCOORD_1": 9,
            "TEXCOORD_2": 10
          },
          "indices": 11,
          "material": 0,
          "mode": 4
        }
      ]
    },
    {
      "name": "Object_2",
      "primitives": [
        {
          "attributes": {
            "NORMAL": 13,
            "POSITION": 12,
            "TEXCOORD_0": 14
          },
          "indices": 15,
          "material": 1,
          "mode": 4
        }
      ]
    }
  ],
  "nodes": [
    {
      "children": [
        1
      ],
      "matrix": [
        1.0,
        0.0,
        0.0,
        0.0,
        0.0,
        2.220446049250313e-16,
        -1.0,
        0.0,
        0.0,
        1.0,
        2.220446049250313e-16,
        0.0,
        0.0,
        0.0,
        0.0,
        1.0
      ],
      "name": "Sketchfab_model"
    },
    {
      "children": [
        2
      ],
      "name": "root"
    },
    {
      "children": [
        3
      ],
      "matrix": [
        1.0,
        0.0,
        0.0,
        0.0,
        0.0,
        2.220446049250313e-16,
        1.0,
        0.0,
        0.0,
        -1.0,
        2.220446049250313e-16,
        0.0,
        0.0,
        0.0,
        0.0,
        1.0
      ],
      "name": "GLTF_SceneRootNode"
    },
    {
      "children": [
        4,
        7,
        10
      ],
      "matrix": [
        3.577863223256968e-08,
        -0.0001773356910646983,
        0.19999989455801234,
        0.0,
        0.19999998807906466,
        3.577863489828587e-08,
        -3.57469247878622e-08,
        0.0,
        -3.5746922124508606e-08,
        0.19999989455801234,
        0.0001773356910711043,
        0.0,
        0.0,
        0.0,
        0.0,
        1.0
      ],
      "name": "S1/2 Metro for Cities Skylines_8"
    },
    {
      "children": [
        5
      ],
      "matrix": [
        1.0,
        0.0,
        0.0,
        0.0,
        0.0,
        1.0,
        0.0,
        0.0,
        0.0,
        0.0,
        1.0,
        0.0,
        0.0,
        7.551499843597412,
        0.0,
        1.0
      ],
      "name": "Sneltram.Bak.Metro_3"
    },
    {
      "children": [
        6
      ],
      "name": "Sneltram.Bak.Metro_0_2"
    },
    {
      "mesh": 0,
      "name": "Object_6"
    },
    {
      "children": [
        8
      ],
      "matrix": [
        -1.0,
        0.0,
        -0.0,
        0.0,
        0.0,
        -1.0,
        0.0,
        0.0,
        0.0,
        -0.0,
        1.0,
        0.0,
        0.0,
        -7.551499843597412,
        0.0,
        1.0
      ],
      "name": "Sneltram.Bak.Metro.001_5"
    },
    {
      "children": [
        9
      ],
      "name": "Sneltram.Bak.Metro.001_0_4"
    },
    {
      "mesh": 1,
      "name": "Object_9"
    },
    {
      "children": [
        11
      ],
      "name": "Sneltram.Draaistel.001_7"
    },
    {
      "children": [
        12
      ],
      "name": "Sneltram.Draaistel.001_0_6"
    },
    {
      "mesh": 2,
      "name": "Object_12"
    }
  ],
  "samplers": [
    {
      "magFilter": 9729,
      "minFilter": 9987,
      "wrapS": 10497,
      "wrapT": 10497
    }
  ],
  "scene": 0,
  "scenes": [
    {
      "name": "Sketchfab_Scene",
      "nodes": [
        0
      ]
    }
  ],
  "textures": [
    {
      "sampler": 0,
      "source": 0
    },
    {
      "sampler": 0,
      "source": 1
    }
  ]
}
